<?xml version="1.0" standalone="no"?>
<!DOCTYPE svg PUBLIC "-//W3C//DTD SVG 20010904//EN"
 "http://www.w3.org/TR/2001/REC-SVG-20010904/DTD/svg10.dtd">
<svg version="1.0" xmlns="http://www.w3.org/2000/svg"
 width="700.000000pt" height="700.000000pt" viewBox="0 0 700.000000 700.000000"
 preserveAspectRatio="xMidYMid meet">
<metadata>
Created by potrace 1.14, written by Peter Selinger 2001-2017
</metadata>
<g transform="translate(0.000000,700.000000) scale(0.100000,-0.100000)"
fill="#000000" stroke="none">
<path d="M3309 6996 c-2 -2 -46 -7 -97 -10 -51 -4 -101 -9 -110 -11 -9 -1 -44
-6 -76 -10 -255 -29 -662 -143 -911 -256 -27 -12 -52 -23 -55 -24 -27 -9 -59
-25 -64 -33 -9 -15 121 -177 211 -262 271 -254 619 -386 983 -375 69 2 139 7
155 10 109 20 149 30 220 52 278 87 538 276 710 514 55 77 154 254 155 276 0
17 -139 52 -330 83 -41 7 -82 14 -90 15 -8 2 -46 6 -85 10 -38 4 -79 10 -90
12 -24 5 -521 14 -526 9z"/>
<path d="M5156 6554 c-8 -29 -64 -146 -116 -239 -71 -128 -189 -288 -306 -414
-79 -86 -248 -234 -306 -269 -16 -9 -28 -20 -28 -24 0 -4 -4 -8 -9 -8 -6 0
-31 -15 -58 -32 -94 -65 -304 -170 -434 -219 -99 -36 -321 -94 -398 -104 -30
-4 -61 -8 -70 -10 -89 -17 -321 -22 -466 -10 -73 5 -248 35 -350 59 -168 39
-451 161 -606 261 -39 25 -72 45 -74 45 -3 0 -13 6 -22 14 -10 8 -63 50 -118
94 -113 91 -247 223 -330 327 -30 39 -59 75 -64 81 -5 6 -25 36 -46 67 -21 31
-39 57 -41 57 -1 0 -9 -6 -16 -12 -7 -7 -42 -38 -78 -68 -162 -138 -335 -319
-462 -485 -38 -49 -75 -97 -83 -107 -98 -120 -319 -509 -385 -678 -12 -30 -28
-68 -35 -85 -75 -168 -181 -565 -210 -785 -4 -30 -9 -62 -10 -70 -27 -147 -27
-725 0 -869 2 -15 11 -68 21 -136 3 -16 7 -37 9 -45 2 -8 6 -31 9 -50 9 -58
16 -93 28 -135 6 -22 11 -44 12 -50 19 -88 77 -268 133 -410 407 -1049 1292
-1834 2387 -2120 72 -19 145 -37 161 -40 73 -13 203 -34 240 -40 22 -3 54 -7
70 -10 96 -14 163 -18 370 -20 127 -1 262 1 300 5 39 4 102 11 140 14 39 4 81
9 95 11 14 3 41 7 60 10 645 102 1252 384 1750 814 75 65 289 276 345 342 411
477 669 1004 795 1616 24 116 24 117 3 108 -157 -66 -403 -87 -586 -49 -347
70 -640 302 -785 621 -72 158 -101 305 -97 493 4 164 34 294 102 437 129 276
375 489 666 578 124 37 197 49 320 49 37 0 67 3 67 7 0 8 -50 103 -103 194
-259 450 -675 886 -1111 1165 -103 66 -252 150 -267 150 -4 0 -10 -12 -13 -26z
m-1656 -1792 c166 -54 271 -143 334 -283 107 -236 -14 -532 -279 -680 -115
-64 -208 -89 -348 -94 -341 -10 -585 195 -589 495 -2 155 48 276 162 391 86
86 192 145 320 179 104 26 306 22 400 -8z m1715 -443 c5 -6 8 -135 21 -834 3
-203 8 -428 9 -500 5 -206 6 -726 1 -770 -19 -180 -48 -298 -98 -403 -77 -163
-226 -273 -418 -307 -74 -14 -306 -13 -395 0 -210 32 -435 99 -622 185 -24 11
-45 20 -48 20 -8 0 -288 140 -360 180 -115 63 -280 164 -283 172 -2 4 -8 8
-14 8 -26 0 -597 405 -712 505 -9 8 -51 42 -180 145 -10 8 -26 22 -36 31 -9 8
-25 22 -36 30 -12 8 -47 37 -78 64 -74 64 -59 51 -215 190 -74 66 -148 132
-165 147 -17 15 -34 28 -38 28 -3 0 -26 -22 -50 -49 -50 -56 -100 -152 -122
-237 -17 -64 -16 -197 1 -229 6 -11 19 -38 29 -59 47 -98 212 -227 429 -334
141 -69 433 -189 568 -232 20 -6 37 -14 37 -18 0 -13 -233 -708 -240 -715 -4
-5 -68 7 -141 27 -712 187 -1208 512 -1432 937 -42 80 -92 203 -101 252 -2 12
-9 45 -16 72 -45 197 -29 474 41 688 112 341 341 599 634 716 90 35 98 38 210
55 179 28 368 -7 520 -97 82 -48 305 -216 363 -274 8 -7 71 -61 140 -120 70
-59 145 -123 168 -142 22 -20 51 -45 65 -56 13 -11 60 -50 104 -86 544 -448
1100 -795 1462 -913 43 -14 89 -27 103 -30 14 -2 37 -7 53 -11 l27 -7 -5 273
c-20 1207 -22 1321 -25 1522 -1 87 1 161 4 165 4 3 169 7 369 10 199 2 363 4
364 5 4 5 103 0 108 -4z"/>
<path d="M6474 4356 c-123 -30 -240 -140 -275 -258 -17 -57 -21 -156 -8 -216
53 -261 340 -396 582 -275 131 65 230 216 222 339 -5 82 -25 173 -46 212 -12
20 -41 58 -66 84 -105 108 -258 150 -409 114z"/>
</g>
</svg>
